<svg xmlns="http://www.w3.org/2000/svg" fill="currentColor" viewBox="0 0 500 165.67"><path d="M181.78 24.33h14.32c9.78 0 16.12 5.62 16.12 14.91v.13c0 9.91-7.3 15.09-16.58 15.22h-6.45V69.1h-7.41V24.33zm13.87 23.53c5.7 0 9.02-3.39 9.02-8.37v-.07c0-5.36-3.32-8.31-9.02-8.31h-6.45v16.76l6.45-.01zM231.76 24.33h16.18c5.14 0 9.28 1.54 11.97 4.2 2.36 2.37 3.69 5.77 3.69 9.86v.26c0 6.9-3.83 11.2-9.27 13.11L264.9 69.1h-8.57l-9.54-15.87c-.11.06-.33.06-.45.06h-7.16V69.1h-7.42V24.33zm15.4 22.31c5.78 0 8.98-3.07 8.98-7.73v-.13c0-5.05-3.27-7.67-8.85-7.67h-8.11v15.54l7.98-.01zM284.44 24.33h28.21v6.71h-20.86v12.15h18.5v6.72h-18.5v12.46h21.17v6.73h-28.52V24.33zM333.53 24.33h6.9l19.7 29.86V24.33h7.23V69.1h-6.27l-20.27-30.77V69.1h-7.29V24.33zM386.65 63.21l4.49-5.56c3.31 3.01 7.03 5.31 11.76 5.31 4.28 0 7.02-2.36 7.02-5.69v-.07c0-2.81-1.47-4.68-8.56-7.28-8.52-3.21-12.92-6.35-12.92-13.51v-.13c0-7.37 5.87-12.54 14.19-12.54 5.17 0 9.98 1.67 14.08 5.25l-4.23 5.69c-3.07-2.49-6.45-4.23-10.04-4.23-4.03 0-6.52 2.25-6.52 5.19v.06c0 3.14 1.67 4.79 9.27 7.74 8.33 3.2 12.16 6.66 12.16 13.18v.12c0 7.88-6.16 12.93-14.53 12.93-5.76 0-11.32-1.98-16.17-6.46zM450.14 24.07h7.17l16.43 45.04h-7.73l-3.73-10.56h-17.4l-3.69 10.56h-7.49l16.44-45.04zm9.85 27.87-6.41-17.96-6.38 17.96h12.79zM182.16 96.49h7.42v44.76h-7.42V96.49zM212.39 96.49h15.99c4.87 0 8.97 1.34 11.45 3.83 1.99 2 3.01 4.5 3.01 7.55v.2c0 5.51-3.21 8.38-6.59 10.04 4.91 1.73 8.51 4.68 8.51 10.68v.27c0 7.86-6.42 12.2-15.94 12.2h-16.44l.01-44.77zm23.04 12.6c0-3.77-2.76-5.95-7.55-5.95h-8.17v12.41h7.73c4.87 0 8-2.17 8-6.33v-.13h-.01zm-6.71 12.73h-9.02v12.79h9.31c5.13 0 8.34-2.24 8.34-6.33v-.13c0-3.9-3.02-6.33-8.63-6.33zM264.95 96.49h28.19v6.72h-20.85v12.14h18.49v6.74h-18.49v12.47h21.18v6.7h-28.52V96.49zm17.7-12.17 6.53 3.03-7.49 5.86h-5.56l6.52-8.89zM314.02 96.49h16.19c5.12 0 9.27 1.53 11.95 4.21 2.36 2.37 3.7 5.76 3.7 9.86v.25c0 6.9-3.83 11.2-9.27 13.11l10.57 17.33h-8.57l-9.55-15.86c-.13.07-.31.07-.45.07h-7.16v15.79h-7.42l.01-44.76zm15.44 22.32c5.75 0 8.95-3.08 8.95-7.75v-.12c0-5.05-3.26-7.68-8.83-7.68h-8.13v15.55h8.01zM367.09 96.49h7.42v44.76h-7.42V96.49zM395.65 119.13v-.44c0-13.56 8.45-22.84 20.02-22.84 6.26 0 10.42 2.24 14.07 5.57l-4.47 5.67c-2.62-2.41-5.57-4.33-9.6-4.33-7.03 0-12.35 6.39-12.35 15.93v.24c0 9.75 5.31 16.07 12.35 16.07 4.28 0 7.11-1.99 9.91-4.67l4.36 5.23c-3.91 4.03-8.46 6.33-14.66 6.33-11.44 0-19.63-9.07-19.63-22.76zM462.66 96.24h7.17l16.43 45.02h-7.73l-3.72-10.54h-17.4l-3.72 10.54h-7.49l16.46-45.02zm9.85 27.88-6.38-17.96-6.41 17.96h12.79zM127.62 47.88H25.79c-6.65 0-12.05-5.38-12.05-12.06 0-6.65 5.41-12.04 12.05-12.04h101.83c6.67 0 12.06 5.39 12.06 12.04 0 6.68-5.4 12.06-12.06 12.06zM129.48 141.93H25.79c-6.65 0-12.05-5.41-12.05-12.04 0-6.67 5.41-12.08 12.05-12.08h103.69c6.66 0 12.04 5.42 12.04 12.08 0 6.63-5.38 12.04-12.04 12.04zM107.44 95.39H25.79c-6.65 0-12.05-5.37-12.05-12.03 0-6.65 5.41-12.05 12.05-12.05h81.65c6.66 0 12.04 5.4 12.04 12.05 0 6.66-5.38 12.03-12.04 12.03z"/></svg>

